<svg width="375" height="812" viewBox="0 0 375 812" fill="none" xmlns="http://www.w3.org/2000/svg">
<g clip-path="url(#clip0_)">
<rect width="375" height="812" fill="#121214"/>
<circle cx="278" cy="99" r="300" transform="rotate(-180 278 99)" fill="url(#paint0_radial_)"/>
<circle cx="98" cy="99" r="300" transform="rotate(-180 98 99)" fill="url(#paint1_radial_)"/>
<mask id="mask0_" style="mask-type:alpha" maskUnits="userSpaceOnUse" x="1" y="0" width="375" height="812">
<rect x="1" width="375" height="812" fill="#202024"/>
</mask>
<g mask="url(#mask0_)">
<path d="M376 168.101V-310.699L188.478 -418.486L0.955322 -310.699V168.101L188.478 275.894L376 168.101Z" fill="url(#paint2_linear_)"/>
<g style="mix-blend-mode:luminosity" opacity="0.4">
<path d="M2.83662 61.3931V168.797L96.1275 222.505L189.418 168.797V61.3931L96.1275 7.68578L2.83662 61.3931Z" fill="url(#paint3_linear_)"/>
<path d="M2.83662 -46.0166V61.3877L96.1275 115.095L189.418 61.3877V-46.0166L96.1275 -99.7239L2.83662 -46.0166Z" fill="url(#paint4_linear_)"/>
<path d="M282.709 -99.6961V7.70821L189.418 61.4155L96.1274 7.70821V-99.6961L189.418 -153.403L282.709 -99.6961Z" fill="url(#paint5_linear_)"/>
<path d="M189.418 168.797V61.3927L282.709 7.68539L376 61.3927V168.797L282.709 222.504L189.418 168.797Z" fill="url(#paint6_linear_)"/>
<path d="M376 -46.0166V61.3877L282.709 115.095L189.418 61.3877V-46.0166L282.709 -99.7239L376 -46.0166Z" fill="url(#paint7_linear_)"/>
<path d="M282.709 222.527V115.123L189.418 61.4155L96.1274 115.123L96.1274 222.527L189.418 276.234L282.709 222.527Z" fill="url(#paint8_linear_)"/>
</g>
</g>
</g>
<defs>
<radialGradient id="paint0_radial_" cx="0" cy="0" r="1" gradientUnits="userSpaceOnUse" gradientTransform="translate(278 99) rotate(90) scale(300)">
<stop stop-color="#F0CA64"/>
<stop offset="1" stop-color="#121214" stop-opacity="0"/>
</radialGradient>
<radialGradient id="paint1_radial_" cx="0" cy="0" r="1" gradientUnits="userSpaceOnUse" gradientTransform="translate(98 99) rotate(90) scale(300)">
<stop stop-color="#FC620C"/>
<stop offset="1" stop-color="#121214" stop-opacity="0"/>
</radialGradient>
<linearGradient id="paint2_linear_" x1="-66.9497" y1="58.9385" x2="437.115" y2="232.357" gradientUnits="userSpaceOnUse">
<stop stop-color="#FF0000"/>
<stop offset="1" stop-color="#FFCD1E"/>
</linearGradient>
<linearGradient id="paint3_linear_" x1="96.1275" y1="217.565" x2="3.23833" y2="59.047" gradientUnits="userSpaceOnUse">
<stop stop-color="#E2E557"/>
<stop offset="1" stop-color="#FF008E" stop-opacity="0"/>
</linearGradient>
<linearGradient id="paint4_linear_" x1="96.1275" y1="110.155" x2="3.23831" y2="-48.3627" gradientUnits="userSpaceOnUse">
<stop stop-color="#E2E557"/>
<stop offset="1" stop-color="#FF008E" stop-opacity="0"/>
</linearGradient>
<linearGradient id="paint5_linear_" x1="96.1275" y1="-105.732" x2="282.421" y2="6.68569" gradientUnits="userSpaceOnUse">
<stop stop-color="#7DDC65" stop-opacity="0"/>
<stop offset="1" stop-color="#FFCD1E"/>
</linearGradient>
<linearGradient id="paint6_linear_" x1="376" y1="174.833" x2="189.706" y2="62.4152" gradientUnits="userSpaceOnUse">
<stop stop-color="#7DDC65" stop-opacity="0"/>
<stop offset="1" stop-color="#FFCD1E"/>
</linearGradient>
<linearGradient id="paint7_linear_" x1="282.709" y1="110.155" x2="375.598" y2="-48.3627" gradientUnits="userSpaceOnUse">
<stop stop-color="#E2E557"/>
<stop offset="1" stop-color="#FF008E" stop-opacity="0"/>
</linearGradient>
<linearGradient id="paint8_linear_" x1="189.418" y1="66.3552" x2="282.307" y2="224.873" gradientUnits="userSpaceOnUse">
<stop stop-color="#E2E557"/>
<stop offset="1" stop-color="#FF008E" stop-opacity="0"/>
</linearGradient>
<clipPath id="clip0_">
<rect width="375" height="812" fill="white"/>
</clipPath>
</defs>
</svg>
